Coordinates
version=1
nRows=6
nColumns=46
inDegrees=yes

Units are S.I. units (second, meters, Newtons, ...)
Angles are in degrees.

endheader
time	pelvis_tilt	pelvis_list	pelvis_rotation	pelvis_tx	pelvis_ty	pelvis_tz	bb_angle	bb_tx	bb_ty	bb_tz	hip_flexion_r	hip_adduction_r	hip_rotation_r	knee_angle_r	knee_angle_r_beta	ankle_angle_r	subtalar_angle_r	mtp_angle_r	crank_angle_r	hip_flexion_l	hip_adduction_l	hip_rotation_l	knee_angle_l	knee_angle_l_beta	ankle_angle_l	subtalar_angle_l	mtp_angle_l	crank_angle_l	lumbar_extension	lumbar_bending	lumbar_rotation	arm_flex_r	arm_add_r	arm_rot_r	elbow_flex_r	pro_sup_r	wrist_flex_r	wrist_dev_r	arm_flex_l	arm_add_l	arm_rot_l	elbow_flex_l	pro_sup_l	wrist_flex_l	wrist_dev_l
      5.00000000	    -13.70266849	     -9.99685860	     -3.27652871	      0.18826724	      1.06210334	     -0.26095427	      0.00000000	      0.50000000	      0.00000000	      0.25000000	     81.37138658	      4.14188504	      1.99927048	    103.28962345	      1.80274401	     20.96796632	      1.15979451	      0.00000000	      0.00000000	     37.44650855	    -14.57362493	      0.41262030	     45.51717156	      0.79442451	     -8.43292286	     -7.81636191	      0.00000000	      0.00000000	    -69.69508864	     10.52233435	     11.70497712	     89.40892338	     -6.84957077	     20.59224680	     63.08511876	     41.23912071	      0.00000000	      0.00000000	     83.22930224	    -17.95904185	     17.81109831	     63.89187423	     41.88951987	      0.00000000	      0.00000000
      5.00500000	    -13.58325819	    -10.20486556	     -2.79726177	      0.18795138	      1.06289910	     -0.25983554	      0.00000000	      0.50000000	      0.00000000	      0.25000000	     80.28549085	      4.06572297	      1.47315835	    101.02760673	      1.76326437	     22.07044834	      0.10725470	      0.00000000	      0.00000000	     38.19301506	    -14.48015358	      1.54506158	     47.95262443	      0.83693118	     -8.30189246	     -9.03238195	      0.00000000	      0.00000000	    -69.94780228	     10.66571393	     11.65545123	     89.41715118	     -6.91503004	     20.54103328	     63.26781490	     41.15354822	      0.00000000	      0.00000000	     83.45580567	    -17.80609976	     17.53035110	     64.00329163	     41.92590358	      0.00000000	      0.00000000
      5.01000000	    -13.34663031	     -9.89747051	     -2.52404861	      0.18789152	      1.06368072	     -0.25850261	      0.00000000	      0.50000000	      0.00000000	      0.25000000	     79.05679165	      3.98553176	      1.47691575	     98.74657582	      1.72345287	     23.22237288	     -0.73343867	      0.00000000	      0.00000000	     38.66763032	    -14.05265644	      2.13388787	     50.38496738	      0.87938357	     -8.07508459	     -9.66867343	      0.00000000	      0.00000000	    -70.10658461	     10.31458891	     11.08291119	     89.38917483	     -7.04249602	     20.45153765	     63.35423377	     41.10396499	      0.00000000	      0.00000000	     83.71211135	    -17.60262550	     17.36233601	     64.09501636	     41.94716972	      0.00000000	      0.00000000
      5.01500000	    -13.10515047	     -9.68062495	     -2.16644503	      0.18780179	      1.06428678	     -0.25715518	      0.00000000	      0.50000000	      0.00000000	      0.25000000	     77.74547816	      3.82759788	      1.35571264	     96.33669480	      1.68139251	     24.17327021	     -1.52705563	      0.00000000	      0.00000000	     39.25750567	    -13.67604564	      2.85654220	     52.91147015	      0.92347937	     -7.76772595	    -10.09489929	      0.00000000	      0.00000000	    -70.32900354	      9.93769399	     10.55452281	     89.36614677	     -7.15141660	     20.37152950	     63.36795628	     41.04687223	      0.00000000	      0.00000000	     84.00893307	    -17.40713206	     17.17007699	     64.21114440	     41.97023935	      0.00000000	      0.00000000
      5.02000000	    -12.86792913	     -9.54234527	     -1.78982039	      0.18764294	      1.06461898	     -0.25573328	      0.00000000	      0.50000000	      0.00000000	      0.25000000	     76.42112911	      3.76774062	      1.16703563	     93.85895732	      1.63814784	     24.65950154	     -2.67229692	      0.00000000	      0.00000000	     39.97237735	    -13.37069795	      3.69155465	     55.61018420	      0.97058081	     -7.21650403	     -9.96839229	      0.00000000	      0.00000000	    -70.45063457	      9.70171408	     10.11156588	     89.34411389	     -7.20864485	     20.21274538	     63.35039755	     40.82934188	      0.00000000	      0.00000000	     84.13241666	    -16.98534416	     16.63317912	     64.29072856	     42.02803290	      0.00000000	      0.00000000
      5.02500000	    -12.41579699	     -9.00529954	     -1.29777967	      0.18749271	      1.06497407	     -0.25434714	      0.00000000	      0.50000000	      0.00000000	      0.25000000	     74.88273852	      3.38781398	      1.38257350	     91.43858203	      1.59590432	     25.23133000	     -3.30212832	      0.00000000	      0.00000000	     40.42166779	    -12.64340728	      4.24369872	     58.25716947	      1.01677942	     -6.80534362	    -10.25077825	      0.00000000	      0.00000000	    -70.71168890	      9.22806964	      9.19877103	     89.29161667	     -7.38255477	     20.08091788	     63.25360777	     40.76188966	      0.00000000	      0.00000000	     84.64376748	    -16.77848033	     16.51861739	     64.45890735	     42.06263574	      0.00000000	      0.00000000
